<?xml version="1.0" encoding="utf-8"?>
<!-- Generator: Adobe Illustrator 25.0.0, SVG Export Plug-In . SVG Version: 6.00 Build 0)  -->
<svg version="1.1" id="ba0517ec-fec1-49ce-b646-53a5b94e2df0"
	 xmlns="http://www.w3.org/2000/svg" xmlns:xlink="http://www.w3.org/1999/xlink" x="0px" y="0px" viewBox="0 0 1121 867"
	 style="enable-background:new 0 0 1121 867;" xml:space="preserve">
<style type="text/css">
	.st0{fill:#3F3D56;}
	.st1{fill:#EA80FC;}
	.st2{opacity:0.3;enable-background:new    ;}
	.st3{opacity:0.1;enable-background:new    ;}
	.st4{fill:#A0616A;}
	.st5{fill:#2F2E41;}
	.st6{fill:#D0CDE1;}
	.st7{fill:#FFFFFF;}
</style>
<path class="st0" d="M555,698.6c-169.6,0-307-137.4-307-307c0-169.6,137.4-307,307-307c169.6,0,307,137.4,307,307
	c0,81.4-32.3,159.5-89.9,217.1C714.6,666.5,636.5,698.8,555,698.6z M555,86.6c-168.2,0-305,136.8-305,305s136.8,305,305,305
	s305-136.8,305-305S723.2,86.6,555,86.6L555,86.6z"/>
<path class="st1" d="M580.9,664.7c-5.7,21-25.2,34-25.2,34s-10.3-21.1-4.6-42.1c5.7-21,25.2-34,25.2-34S586.5,643.7,580.9,664.7z"/>
<path class="st1" d="M529.1,664.7c5.7,21,25.2,34,25.2,34s10.3-21.1,4.6-42.1c-5.7-21-25.2-34-25.2-34S523.5,643.7,529.1,664.7z"/>
<path class="st0" d="M537.5,660.2c15.6,15.2,17.5,38.5,17.5,38.5s-23.4-1.3-39-16.5s-17.5-38.5-17.5-38.5S521.9,645,537.5,660.2z"/>
<path class="st0" d="M572.5,660.2c-15.6,15.2-17.5,38.5-17.5,38.5s23.4-1.3,39-16.5s17.5-38.5,17.5-38.5S588.1,645,572.5,660.2z"/>
<path class="st1" d="M529.1,119.7c5.7-21,25.2-34,25.2-34s10.3,21.1,4.6,42.1s-25.2,34-25.2,34S523.5,140.7,529.1,119.7z"/>
<path class="st1" d="M580.9,119.7c-5.7-21-25.2-34-25.2-34s-10.3,21.1-4.6,42.1s25.2,34,25.2,34S586.5,140.7,580.9,119.7z"/>
<path class="st0" d="M572.5,124.2C556.9,109,555,85.7,555,85.7s23.4,1.3,39,16.5s17.5,38.5,17.5,38.5S588.1,139.4,572.5,124.2z"/>
<path class="st0" d="M537.5,124.2C553.1,109,555,85.7,555,85.7s-23.4,1.3-39,16.5s-17.5,38.5-17.5,38.5S521.9,139.4,537.5,124.2z"/>
<rect x="14.6" y="12.7" class="st1" width="397.5" height="404.2"/>
<polygon class="st0" points="397.1,22.9 43,22.9 22.9,22.9 22.9,44.4 22.9,401.4 43,401.4 43,44.4 397.1,44.4 "/>
<polygon class="st2" points="397.1,22.9 43,22.9 22.9,22.9 22.9,44.4 22.9,401.4 43,401.4 43,44.4 397.1,44.4 "/>
<polygon class="st3" points="339.7,44.4 324,44.4 43,44.4 43,96 324,96 324,401.4 397.1,401.4 397.1,44.4 "/>
<path class="st0" d="M0,0v424.3h420V0H0z M397.1,401.4H22.9V22.9h374.1V401.4z"/>
<path class="st4" d="M294.7,439.9c0,0,19,36.8,29.7,45.1s-17.2,18.4-17.2,18.4l-32.6-51L294.7,439.9z"/>
<path class="st5" d="M179.6,350.3c0,0,88.4,23.1,96.1,38.6s31.5,52.8,31.5,52.8l-35,27.9L237.8,418l-95-42.7L179.6,350.3z"/>
<path class="st5" d="M304.2,488.6c0,0-8.3-7.1-10.7-2.4s-9.5,29.1-9.5,29.1s10.1,9.5,30.9,3.6c0,0,5.3-4.2,13.7,0
	c8.3,4.2,39.2-4.2,38-17.8c-1.2-13.7-32.6-12.5-32.6-12.5s-13.2-14.8-14.9-9.2s0.7,6.2,0.7,6.2S309,496.9,304.2,488.6z"/>
<path class="st4" d="M202.8,476.1l-5.9,49.9h29.1c0,0-2.4-38.6-1.8-43.3S202.8,476.1,202.8,476.1z"/>
<path class="st4" d="M219.4,366.4c0,0,16,23.7,6.5,25.5s-17.2-25.5-17.2-25.5H219.4z"/>
<path class="st5" d="M98.3,364c0,0-11.9,35,35,44.5s61.1,17.2,61.1,17.2l5.9,60.5l41,2.4c0,0,19.6-92-5.9-103.9
	s-79.5-25.5-79.5-25.5L98.3,364z"/>
<path class="st5" d="M200.4,518.3c0,0,8.3-4.2,9.5-4.2c0,0,5.2-12,14.8-10.8l20.8,30.3c0,0,31.5,22.6,9.5,28.5s-39.2,1.2-39.2,1.2
	l-8.9-6.5c0,0,1.2-6.5-6.5-5.3c0,0-16-6.5-15.4-11.3s13.2-25.4,13.2-25.4L200.4,518.3z"/>
<circle class="st4" cx="205.4" cy="224.8" r="23.7"/>
<path class="st4" d="M186.1,217.4c0,0-21.4,15.4-25.5,16s19.6,29.7,19.6,29.7s11.3-18.4,18.4-20.8S186.1,217.4,186.1,217.4z"/>
<path class="st6" d="M170.1,237c0,0-8.9-11.9-14.2-11.9s-53.4,5.3-57.6,45.1s-1.8,109.2-1.8,109.2s-3.6-17.2,36.2-10.1
	c0,0,47.5-10.1,55.8-10.1s11.9-84.9,11.9-84.9l-13.5-21C186.9,253.4,180.8,264.9,170.1,237z"/>
<path class="st6" d="M191.5,269.6l8.9,4.7l10.7,65.3l14.8,33.8c0,0-16-5.5-17.2,1.1L185,340.2L191.5,269.6z"/>
<path class="st5" d="M200.1,205.3l12.9,1.6c-0.2,2.6-0.2,5.9,2.2,7.1c1.1,0.6,2.5,0.6,3.5,1.3c2.3,1.9,0.1,5.9,1.4,8.5l3.8,1
	c1.9,3.6,6.3,4.9,9.9,3c0,0,0,0,0,0c2.5-1.5,3.8-4.4,5-7.2c1.4-3.3,2.8-6.8,2.1-10.2c-0.7-3.7-3.8-6.8-3.9-10.6
	c-0.1-1.7,0.3-3.8-1.1-4.7c-0.7-0.3-1.4-0.5-2.1-0.6c-3.3-0.7-5.1-4.1-7.6-6.4c-5.2-4.8-13.1-4.7-20.1-4.3c-2,0-4,0.4-5.9,1
	c-2.1,1.1-4.1,2.6-5.6,4.4c-3.8,4-7.5,8.3-10,13.2s-3.7,10.7-2.4,16.1c-0.1-0.5,4.4-3.9,4.9-4.4c1.8-1.7,1.9-2.5,2.9-4.5
	C192,205.2,195.1,204.7,200.1,205.3z"/>
<polygon class="st3" points="162.1,281.8 163.9,323.3 190.3,354.3 166.3,319.8 "/>
<polygon class="st3" points="114.6,293.1 135.4,341.1 162.1,363.1 133.6,343.5 "/>
<path class="st0" d="M227.5,332l12.6,8.6c1.3,1,1.7,2.8,1,4.3l-1.7,3.5l0.4,0.3l-1.9,3.9l-0.4-0.3l-13.8,28.5
	c-0.5,1.4-2.1,2.1-3.5,1.5c-0.2-0.1-0.4-0.2-0.5-0.3l-11.8-8.1c-1.5-1.2-1.9-3.2-1.1-4.9l17.5-36c0.4-1.2,1.7-1.7,2.9-1.3
	C227.2,331.9,227.3,331.9,227.5,332z"/>
<polygon class="st7" points="208,368.8 221.5,378.1 239.1,341.7 225.6,332.4 "/>
<path class="st4" d="M202.1,360.8c0,0,23.5,16.3,15.3,21.4s-25.3-17.5-25.3-17.5L202.1,360.8z"/>
<path class="st6" d="M132.1,239.9c0,0-30.9,8.9-22,36.2c2.1,6.6,4.7,13.7,7.4,20.6c8.5,21.8,18.1,42.3,18.1,42.3l26.8,24.3
	l36.1,10.2l4.2-3.6c0,0,1.2-11.3-4.2-12.5s-13.7-5.9-13.7-5.9l-21.4-31.5C163.6,320.1,163,241.7,132.1,239.9z"/>
<rect x="718.7" y="312.9" class="st1" width="388" height="394.5"/>
<polygon class="st0" points="733.4,322.9 1079,322.9 1098.6,322.9 1098.6,343.9 1098.6,692.3 1079,692.3 1079,343.9 733.4,343.9 "/>
<polygon class="st2" points="733.4,322.9 1079,322.9 1098.6,322.9 1098.6,343.9 1098.6,692.3 1079,692.3 1079,343.9 733.4,343.9 "/>
<polygon class="st3" points="789.4,343.9 804.8,343.9 1079,343.9 1079,394.2 804.8,394.2 804.8,692.3 733.4,692.3 733.4,343.9 "/>
<path class="st0" d="M711,300.5v414.2h410V300.5H711z M733.4,322.9h365.2v369.4H733.4V322.9z"/>
<path class="st5" d="M950.6,495.8c-8.8-14.9-26.3-15.6-26.3-15.6s-17-2.2-27.9,20.5c-10.2,21.2-24.2,41.6-2.3,46.6l4-12.3l2.5,13.3
	c3.1,0.2,6.3,0.3,9.4,0.2c23.5-0.8,45.9,0.2,45.2-8.2C954.1,528.9,959.1,510.1,950.6,495.8z"/>
<polygon class="st4" points="886.9,616.2 885.1,649.6 939.6,655.2 941.4,620.5 922.8,608.7 "/>
<path class="st5" d="M1033.4,689.5c-1.6-15.8-66.5-23-82.1-24.5l-5.8-3.4l-1.9-19.8c0,0-57.6-5-61.9-5.6c-4.3-0.6-8,7.4-8,9.3
	c0,1.3-0.8,10.9-4.1,16.6c-7,5.6-28.4,23.4-28.4,30.1c0,8,17,109.3,17,109.3l1.9,21.1l17.3,3.1l-1.2-65.6c0,0,6.2-37.8-2.5-48.3
	v-4.3c0,0,25.4-6.6,34.4-13.8c2.6-0.6,9.9-1.9,13.9-0.7c0.6,0.3,1.2,0.7,1.9,1c0.1,0.1,0.2,0.2,0.3,0.3l0.1-0.1
	c11.6,5.4,41.3,12.3,53.5,10.3c9.4-1.4,19,0.3,27.2,5c-6.8,8.7-1.9,33.4-1.9,33.4l0.6,53.2l8.7,10.5h11.8v-29.1
	C1024.1,777.5,1035.2,707.5,1033.4,689.5z"/>
<circle class="st4" cx="918.8" cy="516.2" r="20.4"/>
<path class="st4" d="M906.4,529.2c0,0,3.1,13.6-1.2,14.9c-3.4,1.1-6.7,2.6-9.9,4.3l-5,16.1v16.1l60.1,6.8l1.9-5.6v-8l-6.8-12.4
	l-3.1-3.1c0,0-13.6-14.9-10.5-29.1H906.4z"/>
<path class="st4" d="M960,578.4c0,0,1.9,21.7,0,31.6c-1.9,9.9-1.2,24.8-1.2,24.8l-13.6-2.5v-33.4l3.1-18L960,578.4z"/>
<circle class="st5" cx="926.4" cy="480.2" r="12.6"/>
<path class="st5" d="M912.5,476.9c0-6.5,4.9-11.9,11.3-12.6c-0.4,0-0.9-0.1-1.3-0.1c-7,0-12.6,5.7-12.6,12.6c0,7,5.7,12.6,12.6,12.6
	c0.4,0,0.9,0,1.3-0.1C917.3,488.8,912.5,483.4,912.5,476.9z"/>
<polygon class="st5" points="946.7,494.3 929.4,485.3 905.6,489 900.7,510.8 912.9,510.3 916.4,502.3 916.4,510.2 922,509.9 
	925.3,497.2 927.4,510.8 947.5,510.4 "/>
<path class="st6" d="M876.4,801.9c0,0,8.8,4.1,11.4,5.7s12.9-1.6,10.9,7.8c-2.1,9.3-10.9,18.1-10.9,18.1s-4.1,4.7-4.1,7.8
	S873.3,868,860.9,867c-12.4-1-10.3-13.4-10.3-13.4l2.6-13.4c0,0,5.2-22.7,6.2-22.2s3.6,4.1,3.6,4.1S875.9,816.8,876.4,801.9z"/>
<path class="st6" d="M1005.2,786.4c0,0-8.8,4.1-11.4,5.7s-12.9-1.6-10.9,7.8c2.1,9.3,10.9,18.1,10.9,18.1s4.1,4.7,4.1,7.8
	s10.3,26.9,22.7,25.8c12.4-1,10.3-13.4,10.3-13.4l-2.6-13.4c0,0-5.2-22.7-6.2-22.2s-3.6,4.1-3.6,4.1S1005.7,801.4,1005.2,786.4z"/>
<path class="st6" d="M937.1,639.1v-4.9H936V632c0-2.1-1.7-3.8-3.8-3.8l0,0h-13.1c-2.1,0-3.8,1.7-3.8,3.8l0,0v36.6
	c0,2.1,1.7,3.8,3.8,3.8c0,0,0,0,0,0h13.1c2.1,0,3.8-1.7,3.8-3.8v-22.9h1.1v-4.9H936v-1.6H937.1z"/>
<circle class="st0" cx="926.2" cy="639.1" r="2.2"/>
<path class="st4" d="M871.5,567.9l-11.1,45.8c0,0-4.3,9.9,5.6,16.1s32.2,14.2,32.2,14.2s19.8,27.2,22.3,16.1s-14.9-25.4-14.9-25.4
	l-30.3-19.2l11.8-32.2L871.5,567.9z"/>
<path class="st4" d="M951.9,625.5c0,0,9.3-1.2,8.7,9.3c-0.6,10.5-13,11.8-13,11.8S942,670,934,665.7c-8-4.3,4.3-27.9,4.3-27.9
	l10.5-8L951.9,625.5z"/>
<path class="st5" d="M892.2,563.9l9.9-20.4l-19.8,6.8c0,0-11.1,5.6-11.8,18.6c-0.6,13,14.2,19.8,14.2,19.8s2.5,18.6,1.2,21.1
	s0,12.4,0,12.4s23.8-6.5,35.6,1.5c11.8,8,21.4,3.4,21.4,3.4s-0.6-15.5,4.3-18s9.3-14.2,5-21.7c0,0,9.9,1.2,9.3-8
	c-0.6-9.3-5.6-17.3-13.6-21.1S939,554,939,554l11.4,21v5.6c0,0-20.2-12.9-40.2-14c-6.5-0.3-12.9,1.8-18,5.9l0,0L892.2,563.9z"/>
</svg>
